<?xml version="1.0" encoding="utf-8"?>
<!-- Generator: Adobe Illustrator 17.0.0, SVG Export Plug-In . SVG Version: 6.00 Build 0)  -->
<!DOCTYPE svg PUBLIC "-//W3C//DTD SVG 1.1//EN" "http://www.w3.org/Graphics/SVG/1.1/DTD/svg11.dtd">
<svg version="1.1" id="图层_1" xmlns="http://www.w3.org/2000/svg" xmlns:xlink="http://www.w3.org/1999/xlink" x="0px" y="0px"
	 width="40px" height="40px" viewBox="0 0 40 40" enable-background="new 0 0 40 40" xml:space="preserve">
<g>
	<path fill="#fff" d="M18.776,32.365c-8.163,0-14.805-6.642-14.805-14.805S10.613,2.756,18.776,2.756s14.805,6.642,14.805,14.805
		S26.939,32.365,18.776,32.365z M18.776,4.756c-7.061,0-12.805,5.744-12.805,12.805s5.744,12.805,12.805,12.805
		s12.805-5.744,12.805-12.805S25.837,4.756,18.776,4.756z"/>
	<path fill="#fff" d="M35.028,37.244c-0.276,0-0.551-0.114-0.749-0.337l-7.083-8c-0.366-0.414-0.327-1.046,0.086-1.412
		s1.044-0.329,1.412,0.085l7.083,8c0.366,0.414,0.327,1.046-0.086,1.412C35.501,37.161,35.265,37.244,35.028,37.244z"/>
</g>
</svg>
